<svg width="88" height="88" viewBox="0 0 88 88" fill="none" xmlns="http://www.w3.org/2000/svg">
<path d="M43.9997 80.6666C38.9275 80.6666 34.1608 79.7035 29.6997 77.7773C25.2386 75.851 21.358 73.2392 18.058 69.9416C14.758 66.644 12.1461 62.7635 10.2223 58.2999C8.29857 53.8364 7.33546 49.0697 7.33301 43.9999C7.33057 38.9301 8.29368 34.1635 10.2223 29.6999C12.151 25.2364 14.7629 21.3558 18.058 18.0583C21.3531 14.7607 25.2337 12.1488 29.6997 10.2226C34.1657 8.29636 38.9323 7.33325 43.9997 7.33325C49.067 7.33325 53.8337 8.29636 58.2997 10.2226C62.7657 12.1488 66.6462 14.7607 69.9414 18.0583C73.2365 21.3558 75.8496 25.2364 77.7807 29.6999C79.7118 34.1635 80.6737 38.9301 80.6664 43.9999C80.659 49.0697 79.6959 53.8364 77.777 58.2999C75.8581 62.7635 73.2462 66.644 69.9414 69.9416C66.6365 73.2392 62.7559 75.8523 58.2997 77.7809C53.8435 79.7096 49.0768 80.6715 43.9997 80.6666ZM43.9997 73.3333C52.1886 73.3333 59.1247 70.4916 64.808 64.8083C70.4913 59.1249 73.333 52.1888 73.333 43.9999C73.333 35.811 70.4913 28.8749 64.808 23.1916C59.1247 17.5083 52.1886 14.6666 43.9997 14.6666C35.8108 14.6666 28.8747 17.5083 23.1913 23.1916C17.508 28.8749 14.6663 35.811 14.6663 43.9999C14.6663 52.1888 17.508 59.1249 23.1913 64.8083C28.8747 70.4916 35.8108 73.3333 43.9997 73.3333ZM43.9997 65.9999C37.8886 65.9999 32.6941 63.861 28.4163 59.5833C24.1386 55.3055 21.9997 50.111 21.9997 43.9999C21.9997 37.8888 24.1386 32.6944 28.4163 28.4166C32.6941 24.1388 37.8886 21.9999 43.9997 21.9999C50.1108 21.9999 55.3052 24.1388 59.583 28.4166C63.8608 32.6944 65.9997 37.8888 65.9997 43.9999C65.9997 50.111 63.8608 55.3055 59.583 59.5833C55.3052 63.861 50.1108 65.9999 43.9997 65.9999ZM43.9997 58.6666C48.033 58.6666 51.4858 57.2305 54.358 54.3583C57.2302 51.486 58.6663 48.0333 58.6663 43.9999C58.6663 39.9666 57.2302 36.5138 54.358 33.6416C51.4858 30.7694 48.033 29.3333 43.9997 29.3333C39.9663 29.3333 36.5136 30.7694 33.6413 33.6416C30.7691 36.5138 29.333 39.9666 29.333 43.9999C29.333 48.0333 30.7691 51.486 33.6413 54.3583C36.5136 57.2305 39.9663 58.6666 43.9997 58.6666ZM43.9997 51.3333C41.983 51.3333 40.2572 50.6158 38.8223 49.1809C37.3875 47.746 36.6688 46.019 36.6663 43.9999C36.6639 41.9808 37.3826 40.255 38.8223 38.8226C40.2621 37.3901 41.9879 36.6715 43.9997 36.6666C46.0115 36.6617 47.7385 37.3804 49.1807 38.8226C50.6229 40.2648 51.3403 41.9906 51.333 43.9999C51.3257 46.0093 50.6082 47.7363 49.1807 49.1809C47.7531 50.6256 46.0261 51.343 43.9997 51.3333Z" fill="black"/>
</svg>
