<svg width="52" height="43" viewBox="0 0 52 43" fill="none" xmlns="http://www.w3.org/2000/svg">
<path d="M50.1429 0H33.4286C31.987 0 30.5652 0.3238 29.2759 0.945756C27.9865 1.56771 26.8649 2.47074 26 3.58333C25.1351 2.47074 24.0135 1.56771 22.7241 0.945756C21.4348 0.3238 20.013 0 18.5714 0H1.85714C1.3646 0 0.892226 0.188765 0.543944 0.524767C0.195663 0.86077 0 1.31649 0 1.79167V34.0417C0 34.5168 0.195663 34.9726 0.543944 35.3086C0.892226 35.6446 1.3646 35.8333 1.85714 35.8333H18.5714C20.0491 35.8333 21.4662 36.3996 22.511 37.4076C23.5559 38.4156 24.1429 39.7828 24.1429 41.2083C24.1429 41.6835 24.3385 42.1392 24.6868 42.4752C25.0351 42.8112 25.5075 43 26 43C26.4925 43 26.9649 42.8112 27.3132 42.4752C27.6615 42.1392 27.8571 41.6835 27.8571 41.2083C27.8571 39.7828 28.4441 38.4156 29.489 37.4076C30.5338 36.3996 31.9509 35.8333 33.4286 35.8333H50.1429C50.6354 35.8333 51.1078 35.6446 51.4561 35.3086C51.8043 34.9726 52 34.5168 52 34.0417V1.79167C52 1.31649 51.8043 0.86077 51.4561 0.524767C51.1078 0.188765 50.6354 0 50.1429 0ZM18.5714 32.25H3.71429V3.58333H18.5714C20.0491 3.58333 21.4662 4.14963 22.511 5.15763C23.5559 6.16564 24.1429 7.53279 24.1429 8.95833V34.0417C22.537 32.8759 20.5811 32.2469 18.5714 32.25ZM48.2857 32.25H33.4286C31.4189 32.2469 29.463 32.8759 27.8571 34.0417V8.95833C27.8571 7.53279 28.4441 6.16564 29.489 5.15763C30.5338 4.14963 31.9509 3.58333 33.4286 3.58333H48.2857V32.25ZM33.4286 8.95833H42.7143C43.2068 8.95833 43.6792 9.1471 44.0275 9.4831C44.3758 9.8191 44.5714 10.2748 44.5714 10.75C44.5714 11.2252 44.3758 11.6809 44.0275 12.0169C43.6792 12.3529 43.2068 12.5417 42.7143 12.5417H33.4286C32.936 12.5417 32.4637 12.3529 32.1154 12.0169C31.7671 11.6809 31.5714 11.2252 31.5714 10.75C31.5714 10.2748 31.7671 9.8191 32.1154 9.4831C32.4637 9.1471 32.936 8.95833 33.4286 8.95833ZM44.5714 17.9167C44.5714 18.3918 44.3758 18.8476 44.0275 19.1836C43.6792 19.5196 43.2068 19.7083 42.7143 19.7083H33.4286C32.936 19.7083 32.4637 19.5196 32.1154 19.1836C31.7671 18.8476 31.5714 18.3918 31.5714 17.9167C31.5714 17.4415 31.7671 16.9858 32.1154 16.6498C32.4637 16.3138 32.936 16.125 33.4286 16.125H42.7143C43.2068 16.125 43.6792 16.3138 44.0275 16.6498C44.3758 16.9858 44.5714 17.4415 44.5714 17.9167ZM44.5714 25.0833C44.5714 25.5585 44.3758 26.0142 44.0275 26.3502C43.6792 26.6862 43.2068 26.875 42.7143 26.875H33.4286C32.936 26.875 32.4637 26.6862 32.1154 26.3502C31.7671 26.0142 31.5714 25.5585 31.5714 25.0833C31.5714 24.6082 31.7671 24.1524 32.1154 23.8164C32.4637 23.4804 32.936 23.2917 33.4286 23.2917H42.7143C43.2068 23.2917 43.6792 23.4804 44.0275 23.8164C44.3758 24.1524 44.5714 24.6082 44.5714 25.0833Z" fill="black"/>
</svg>
